<svg width="154" height="73" viewBox="0 0 154 73" fill="none" xmlns="http://www.w3.org/2000/svg">
<path d="M133.034 27.628C132.824 26.284 132.866 25.045 133.16 23.911C133.454 22.777 133.874 21.748 134.42 20.824C135.008 19.858 135.659 18.976 136.373 18.178C137.129 17.38 137.822 16.624 138.452 15.91C139.082 15.196 139.607 14.524 140.027 13.894C140.489 13.222 140.72 12.55 140.72 11.878C140.72 10.744 140.363 9.946 139.649 9.484C138.977 8.98 138.158 8.728 137.192 8.728C136.1 8.728 135.176 8.98 134.42 9.484C133.664 9.988 132.866 10.618 132.026 11.374L126.104 5.956C127.574 4.192 129.317 2.764 131.333 1.672C133.349 0.579998 135.554 0.0339974 137.948 0.0339974C139.754 0.0339974 141.455 0.243997 143.051 0.663997C144.647 1.084 146.033 1.735 147.209 2.617C148.427 3.499 149.372 4.654 150.044 6.082C150.716 7.468 151.052 9.148 151.052 11.122C151.052 12.382 150.821 13.516 150.359 14.524C149.897 15.49 149.33 16.393 148.658 17.233C148.028 18.073 147.314 18.871 146.516 19.627C145.76 20.383 145.067 21.16 144.437 21.958C143.807 22.756 143.282 23.617 142.862 24.541C142.484 25.465 142.358 26.494 142.484 27.628H133.034ZM131.396 37.204C131.396 35.356 131.984 33.802 133.16 32.542C134.336 31.282 135.848 30.652 137.696 30.652C139.544 30.652 141.056 31.282 142.232 32.542C143.408 33.802 143.996 35.356 143.996 37.204C143.996 39.052 143.408 40.606 142.232 41.866C141.056 43.126 139.544 43.756 137.696 43.756C135.848 43.756 134.336 43.126 133.16 41.866C131.984 40.606 131.396 39.052 131.396 37.204Z" fill="#162447"/>
<circle cx="55.5" cy="37.5004" r="6" fill="#162447" stroke="#162447"/>
<path d="M130 69L0 69" stroke="#162447" stroke-width="7"/>
<path d="M36 23.0006L36 66.0005M74.4086 37.3339L74.4086 66.0005M112 23.0005L112 66.0005" stroke="#162447" stroke-width="4"/>
</svg>
